<svg width="23" height="11" viewBox="0 0 23 11" fill="none" xmlns="http://www.w3.org/2000/svg">
<path d="M22.8243 5.05155L18.2283 0.185567C17.9949 -0.0618557 17.6204 -0.0618557 17.3869 0.185567C17.1535 0.43299 17.1535 0.829897 17.3869 1.07732L20.9665 4.87113H0.598208C0.267491 4.87113 0 5.15464 0 5.50516C0 5.85567 0.267491 6.13918 0.598208 6.13918H20.9665L17.3869 9.92268C17.1535 10.1701 17.1535 10.567 17.3869 10.8144C17.5037 10.9381 17.6544 11 17.8101 11C17.9657 11 18.1165 10.9381 18.2332 10.8144L22.8292 5.9433C23.0577 5.70103 23.0577 5.29897 22.8243 5.05155Z" fill="white"/>
</svg>
