<svg width="50" height="50" viewBox="0 0 50 50" fill="none" xmlns="http://www.w3.org/2000/svg">
<path d="M45.3494 0H42.5553L39.9095 2.99551H39.7117H33.5052H30.439L28.0899 0H21.7845L19.5344 2.89566H10.2617L7.36866 0H4.00578L0 4.74289V47.6785L2.6458 50L4.97014 48.1278H7.04721L9.00065 49.9501H18.0013L19.9547 48.1777H27.5707L29.3016 49.9251H38.9204L41.1211 48.1528H43.5691L46.4374 49.9251L49.4788 47.6785V4.74289L45.3494 0V0ZM3.21452 46.3555L2.6458 45.2571V4.74289L4.62396 2.17174H5.78613C5.81086 2.37144 5.83559 2.57114 5.86031 2.74588C5.93449 3.17024 5.93449 3.54468 5.95922 3.91912C6.05813 4.76785 6.10758 5.56665 6.18176 6.41538C6.25595 6.73989 6.25595 7.03944 6.25595 7.36395C6.33013 8.38742 6.33013 9.336 6.33013 10.3095C6.33013 10.8587 6.23122 11.333 6.23122 11.8572C6.23122 12.0819 6.33013 12.1817 6.55267 12.1817C6.77521 12.1817 6.87412 12.0819 6.87412 11.8572C6.9483 10.8337 6.97303 9.76036 6.97303 8.73689C6.97303 7.93809 6.89885 7.11433 6.87412 6.31553C6.79994 5.69146 6.77521 4.99251 6.72576 4.34348C6.65158 3.74438 6.5774 3.17024 6.50322 2.57114C6.42904 2.47129 6.42904 2.32152 6.40431 2.17174H6.42904L8.58029 4.74289H12.5119C12.5861 5.39191 12.6603 5.99101 12.6603 6.64004C12.7344 7.78832 12.7344 9.01148 12.7344 10.1598C12.7344 10.8337 12.6355 11.5577 12.5861 12.2317C12.4872 13.2302 12.3388 14.2287 12.0421 15.2272C11.7948 16.2756 11.3497 17.2741 10.8799 18.2726C10.3359 19.2711 9.965 20.3195 9.71773 21.4179C9.39628 22.666 9.12428 23.8642 8.87701 25.1373C8.72865 25.8113 8.62974 26.5352 8.50611 27.2841C8.43193 27.9081 8.35775 28.5072 8.25884 29.1063C8.18466 29.5806 8.15993 30.005 8.11048 30.4793C8.01157 30.9536 7.96211 31.4778 7.88793 31.9521C7.81375 32.3265 7.81375 32.701 7.78902 33.0504C7.66539 33.7743 7.59121 34.2736 7.54175 34.9226C7.46757 35.322 7.46757 35.8213 7.44284 36.2207C7.34394 36.9945 7.29448 37.7434 7.2203 38.5172C7.2203 38.7668 7.14612 38.9915 7.14612 39.2661C7.14612 39.6405 7.07194 40.0399 7.07194 40.4144C6.99776 41.338 6.97303 42.3115 6.92358 43.2351C6.8494 43.8343 6.82467 44.4583 6.82467 44.9825C6.82467 45.4568 6.79994 45.9061 6.77521 46.3555H3.21452ZM17.2348 47.6785H14.3417C14.3417 46.0809 14.2922 44.4333 14.2922 42.8607C14.2922 41.9371 14.3664 40.9885 14.3664 40.0649C14.3664 39.5157 14.4406 38.9915 14.4406 38.4423C14.5148 37.7434 14.5148 37.0195 14.5395 36.2456C14.6137 35.4468 14.6384 34.698 14.6879 33.9491C14.7621 33.1003 14.8362 32.1767 14.9351 31.303C15.0341 30.3545 15.1824 29.356 15.4791 28.4823C15.5533 28.3325 15.3802 28.1078 15.2319 28.0579C15.0835 27.983 14.9104 28.0579 14.861 28.2826C14.7621 28.7569 14.6384 29.306 14.5395 29.7803C14.4406 30.4793 14.3911 31.1033 14.2922 31.7524C14.2181 32.1767 14.2181 32.5512 14.1933 32.9256C14.0944 33.6995 14.045 34.4733 13.9708 35.2222C13.9708 35.5467 13.8966 35.8213 13.8966 36.1458C13.8966 36.7449 13.8224 37.2691 13.8224 37.8682C13.8224 38.4923 13.7482 39.1413 13.7482 39.8153C13.7482 40.2896 13.6741 40.8387 13.6741 41.313C13.5999 43.1852 13.5999 44.9825 13.5999 46.8797C13.5999 47.1543 13.6246 47.4289 13.6493 47.6785H9.74246L8.43193 46.3555H7.8632C7.88793 45.8562 7.91266 45.332 7.91266 44.8328C7.98684 44.0839 7.98684 43.31 8.01157 42.5861C8.08575 41.987 8.08575 41.4878 8.11048 40.9136C8.18466 40.1398 8.20938 39.3909 8.25884 38.6171C8.33302 38.018 8.35775 37.3939 8.4072 36.7948C8.50611 36.021 8.62974 35.1722 8.65447 34.3485C8.72865 33.7494 8.75338 33.2501 8.80283 32.676C8.87701 32.0519 8.9512 31.4279 9.02538 30.7788C9.12428 30.1797 9.17374 29.6805 9.24792 29.1063C9.3221 28.6321 9.39628 28.1078 9.47046 27.6336C9.56937 27.1593 9.61883 26.635 9.71773 26.1108C9.81664 25.362 9.965 24.638 10.1381 23.9141C10.4595 22.7659 10.7315 21.6176 11.0777 20.4693C11.3003 19.8452 11.5475 19.2212 11.869 18.5721C12.4624 17.324 12.8828 16.001 13.1301 14.653C13.229 14.029 13.3526 13.355 13.4515 12.7309C13.5257 12.4314 13.5504 12.0569 13.5504 11.7324C13.6246 10.2097 13.6493 8.66201 13.6493 7.13929C13.6493 6.39041 13.501 5.59161 13.5752 4.79281H20.9685L22.9467 2.22167H25.1721C25.2216 2.69596 25.2463 3.17024 25.3205 3.64453C25.3947 4.24363 25.4194 4.81777 25.4194 5.41687C25.4936 6.2656 25.4936 7.13929 25.4936 7.98802C25.4194 8.68697 25.4194 9.41088 25.3452 10.1098C25.1227 11.8323 24.8754 13.4798 24.282 15.1023C24.0347 15.7014 23.738 16.3505 23.4907 16.8997C23.0209 17.8482 22.65 18.9216 22.378 20.02C22.0565 21.1932 21.7845 22.3665 21.5373 23.6146C21.3147 24.4134 21.2158 25.2621 21.1169 26.1108C21.018 26.9596 20.8696 27.8832 20.746 28.7569C20.6471 29.3809 20.5976 30.03 20.5235 30.7039C20.4493 31.4778 20.3751 32.1268 20.3009 32.8258C20.3009 33.2751 20.3009 33.6246 20.2762 33.999C20.1773 34.7728 20.1278 35.4968 20.0536 36.2456C20.0536 36.4953 19.9795 36.7199 19.9795 37.0195C19.9053 37.6435 19.9053 38.2676 19.8806 38.8917C19.8064 39.8153 19.7816 40.664 19.7322 41.5627C19.658 42.1867 19.6333 42.8857 19.6333 43.5347C19.5591 44.4583 19.5591 45.4069 19.5344 46.3555C19.5344 46.3804 19.5344 46.4054 19.5344 46.4304H18.9162L17.2348 47.6785ZM28.6092 46.3555H23.4165V43.6096C23.4165 43.0604 23.4907 42.4863 23.4907 41.8872C23.5649 41.2881 23.5649 40.639 23.5896 40.0899C23.6885 38.9166 23.738 37.7933 24.0594 36.67C24.1336 36.4453 23.9852 36.2956 23.8369 36.2456C23.6143 36.1707 23.466 36.3205 23.4165 36.4953C23.3176 37.1942 23.194 37.8932 23.0951 38.5921C22.9962 39.2162 22.9962 39.8652 22.9467 40.5392C22.8725 41.338 22.8478 42.0869 22.8478 42.8857C22.7983 44.0589 22.7983 45.2322 22.7736 46.3804H20.4493C20.4493 45.6316 20.4987 44.8577 20.4987 44.1588C20.5729 43.3849 20.5729 42.7359 20.5976 41.9621C20.6718 41.363 20.6718 40.7888 20.6965 40.1897C20.7707 39.3909 20.7955 38.5672 20.8449 37.7683C20.9191 37.1692 20.9438 36.5202 20.9933 35.8962C21.0922 35.0474 21.2158 34.1737 21.2405 33.325C21.3147 32.9007 21.3147 32.5262 21.3395 32.0769C21.4384 31.5277 21.4878 31.0035 21.562 30.4543C21.6362 29.98 21.6609 29.5057 21.7104 29.0315C21.7845 28.5572 21.8093 28.1078 21.8587 27.7084C21.9329 27.2341 22.0071 26.7599 22.0813 26.2856C22.1802 25.5866 22.2296 24.8877 22.4027 24.2636C22.65 23.0155 22.8725 21.8173 23.194 20.5941C23.4413 19.5706 23.7874 18.4973 24.2572 17.5487C24.6282 16.7499 25.0238 15.9011 25.3205 15.0524C25.6914 14.029 25.9387 13.0305 26.087 11.9321C26.1612 11.308 26.2354 10.6091 26.3096 9.96006C26.3838 9.41088 26.4085 8.88667 26.4085 8.33749C26.4827 7.48877 26.4827 6.61508 26.4827 5.76635C26.4085 4.91762 26.3838 4.11882 26.3343 3.27009C26.2849 2.94558 26.2354 2.57114 26.186 2.22167H27.3976L29.5488 4.79281H33.5793C33.5793 5.01747 33.6041 5.24214 33.6288 5.4668C33.703 6.16575 33.7277 6.8647 33.7772 7.56365C33.8513 8.48727 33.9255 9.336 34.0244 10.2346C34.1233 10.9336 34.1728 11.6575 34.2717 12.3565C34.3706 13.1553 34.4942 13.9041 34.6426 14.7029C34.7415 15.5017 34.8899 16.3505 35.063 17.1493C35.2113 17.998 35.3844 18.7968 35.5328 19.5956C35.6317 20.1947 35.7553 20.8437 35.8542 21.4678C35.9284 22.017 36.0026 22.5412 36.0768 23.0904C36.151 23.4149 36.151 23.7893 36.1757 24.1138C36.2746 24.9626 36.324 25.7614 36.3982 26.6101V26.8347C36.3982 28.008 36.4724 29.1812 36.3982 30.3545C36.324 31.1533 36.2499 31.977 36.1757 32.7758C36.1015 33.3749 36.0768 34.024 35.9531 34.5731C35.8542 35.2721 35.7306 35.971 35.5822 36.67C35.3844 37.8183 35.2113 38.8917 34.9888 40.0649C34.8899 40.6141 34.8404 41.1882 34.7662 41.7124C34.5437 43.1353 34.6673 44.6081 34.6673 46.031C34.6673 46.6301 34.7168 47.1543 34.791 47.7284H30.0681L28.6092 46.3555ZM47.1792 45.2322L46.4374 46.3555H42.6047C42.58 46.031 42.5553 45.7314 42.5553 45.4319C42.4811 43.8842 42.4564 42.3864 42.4564 40.8387C42.4564 40.0649 42.5305 39.2911 42.5553 38.5422C42.6294 37.7434 42.7036 36.9196 42.8025 36.1208C42.9509 34.8727 43.2229 33.6246 43.5938 32.4513C43.6927 32.2017 43.8163 31.8522 43.9153 31.6026C44.0142 31.2781 43.8411 31.0534 43.5443 31.1283C43.4454 31.1283 43.3218 31.2781 43.2971 31.3779C43.0745 32.002 42.8767 32.651 42.7036 33.325C42.4811 34.2486 42.3327 35.1223 42.1596 36.0459C42.0607 36.5951 42.0607 37.1193 42.0113 37.6685C41.9371 38.5921 41.9124 39.4658 41.8629 40.3894C41.7887 41.4628 41.7887 42.4863 41.7887 43.5347C41.7887 44.3335 41.8629 45.0824 41.8876 45.8812C41.8876 46.031 41.8876 46.2057 41.9124 46.3555H40.0578L38.3269 47.6785H35.7553C35.7306 47.4289 35.7306 47.1792 35.7306 46.9546C35.6564 45.6316 35.6317 44.2836 35.6317 42.9606C35.6317 42.1618 35.7059 41.313 35.8542 40.5142C36.0768 39.1163 36.3982 37.7184 36.6455 36.3455C36.7939 35.6465 36.868 34.9226 36.967 34.2237C37.0659 33.4249 37.1895 32.6011 37.2142 31.7773C37.2884 30.9785 37.3131 30.2297 37.3131 29.4309C37.3131 28.5821 37.3873 27.7833 37.3131 26.9845C37.2389 26.1358 37.1648 25.2122 37.0906 24.3385C37.0164 23.8642 36.9917 23.315 36.9422 22.7908C36.8433 22.1917 36.7939 21.6176 36.695 21.0185C36.596 20.3944 36.4724 19.6955 36.324 18.9965C36.1015 18.1977 35.9531 17.349 35.7801 16.5502C35.6317 15.8512 35.5328 15.1523 35.4091 14.4533C35.3102 13.9041 35.2608 13.33 35.1619 12.7309C35.063 12.1817 35.0135 11.6575 34.9393 11.1083C34.8404 10.634 34.791 10.0849 34.7168 9.61058C34.6426 9.18622 34.6426 8.81178 34.6179 8.43734C34.519 7.73839 34.4695 7.01448 34.3953 6.31553C34.3953 6.0659 34.3212 5.71643 34.3212 5.4668C34.3212 5.21717 34.2964 4.96755 34.2964 4.71792H39.5633C39.5633 4.84274 39.5633 4.96755 39.5633 5.0674C39.4891 6.4653 39.4891 7.78832 39.4644 9.1363C39.4644 9.7354 39.3902 10.2596 39.3902 10.8587C39.3902 11.6575 39.4644 12.5062 39.4644 13.305C39.5386 14.004 39.5386 14.7029 39.5633 15.4019C39.6375 16.2007 39.6622 17.0245 39.7858 17.8233C39.9342 19.7703 40.2556 21.6425 40.7255 23.4398C40.7996 23.7644 40.8738 24.0639 41.0469 24.3635C41.1458 24.5881 41.4673 24.6131 41.6651 24.5132C41.9124 24.4134 41.9865 24.1887 41.9124 23.9141C41.6651 22.7908 41.3189 21.6675 41.1211 20.5442C40.8986 19.6955 40.8738 18.7718 40.7502 17.8982C40.676 17.349 40.6513 16.8248 40.6018 16.2756C40.5276 15.352 40.5029 14.4783 40.4535 13.5547C40.4535 13.0804 40.3793 12.6311 40.3793 12.2317C40.3793 11.4578 40.3051 10.7339 40.3051 9.98502C40.3051 9.03645 40.3793 8.03794 40.3793 7.08937C40.4287 6.31553 40.4535 5.51673 40.4782 4.74289H41.2942L43.1982 2.17174H44.756L47.1792 4.74289V45.2322Z" fill="#FF9701"/>
<path d="M33.653 21.6425C33.5541 20.8686 33.5047 20.0948 33.3316 19.296C33.109 18.0229 32.7876 16.65 32.3178 15.4518C31.9469 14.5282 31.5265 13.7294 30.8341 13.1053C30.5127 12.7808 30.1418 12.5561 29.672 12.5561C28.9796 12.4812 28.4356 12.8057 28.04 13.3299C27.5702 13.8042 27.2487 14.4533 26.9767 15.1023C26.4327 16.3754 26.0618 17.7483 25.864 19.0963C25.7156 20.2695 25.5425 21.5177 25.4436 22.7408C25.3447 23.5896 25.3447 24.4633 25.3447 25.312V27.3339C25.4189 28.2825 25.4436 28.9815 25.5673 29.6305C25.6415 30.4043 25.7156 31.1782 25.8145 31.9271C25.9629 33.1003 26.2844 34.2735 26.6553 35.4468C27.0262 36.5701 27.4465 37.6435 28.3614 38.4423C28.9796 39.0414 29.8451 39.1412 30.5869 38.6669C31.205 38.2925 31.6007 37.7184 31.8974 37.0444C32.2188 36.3454 32.5156 35.5466 32.7381 34.7977C32.9854 33.8741 33.2079 32.9256 33.3563 31.977C33.5047 31.278 33.5788 30.5541 33.6036 29.8552C33.7025 29.0813 33.8261 28.3075 33.8261 27.5087C33.8261 26.2606 33.8261 25.0124 33.7519 23.7643C33.7519 23.0404 33.6777 22.2665 33.653 21.6425ZM32.6887 29.7553C32.5898 30.5292 32.5403 31.303 32.3672 32.0519C32.2188 32.8507 32.0458 33.5995 31.8232 34.3484C31.6007 35.1472 31.3534 35.971 30.9083 36.645C30.6858 37.0194 30.4385 37.3439 30.1171 37.6684C29.7956 37.993 29.3505 37.993 29.0538 37.6684C28.8065 37.4188 28.5098 37.0693 28.2872 36.7199C27.5949 35.5466 27.2734 34.2236 27.0262 32.8756C26.8778 31.9271 26.7047 31.0034 26.6058 30.0549C26.5069 29.4558 26.4574 28.8816 26.4574 28.2825C26.3833 27.2091 26.3585 26.1607 26.3585 25.0873C26.3585 24.3135 26.4327 23.5896 26.4574 22.8407C26.5564 21.7174 26.68 20.644 26.8284 19.5706C27.0509 18.2975 27.3723 16.9246 27.8422 15.7264C28.0894 15.1023 28.3862 14.4533 28.9054 13.954C29.4494 13.4797 29.8203 13.5297 30.216 13.954C30.6116 14.3784 30.9825 14.9026 31.1556 15.4518C31.4029 16.2256 31.6996 16.9495 31.8479 17.6984C31.9963 18.3973 32.1694 19.0963 32.2683 19.7953C32.3672 20.3944 32.4908 20.9186 32.5156 21.5177C32.5898 21.942 32.5898 22.3165 32.6145 22.7658C32.6887 23.2401 32.7134 23.7893 32.7134 24.2635V25.7613C32.7134 26.3105 32.7876 26.7848 32.8123 27.2591C32.837 28.0579 32.8123 28.9066 32.6887 29.7553Z" fill="#FF9701"/>
<path d="M31.8984 23.8892C31.8242 23.0904 31.7501 22.3415 31.577 21.5427C31.4286 20.6191 31.1566 19.6705 30.5632 18.8966C30.0933 18.2975 29.401 18.1228 28.7828 18.7469C28.3624 19.1712 28.1646 19.6954 27.9421 20.2446C27.4723 21.5177 27.3239 22.9156 27.1755 24.3135C27.1014 25.0125 27.1755 25.7114 27.1755 26.4104C27.1755 27.0095 27.2497 27.5337 27.2745 28.1328L27.5959 30.0799C27.7443 31.0035 28.0163 31.8522 28.5355 32.5761C29.0054 33.2002 29.7719 33.4248 30.3901 32.8008C30.8104 32.3764 30.9835 31.8772 31.1813 31.3779C31.6511 30.2047 31.7995 28.9316 31.9479 27.6335C32.0221 27.0344 31.9479 26.4603 31.9479 25.8612C31.9726 25.1622 31.9726 24.5382 31.8984 23.8892ZM31.305 27.5836C31.1566 28.8567 30.9835 30.0799 30.5384 31.2531C30.3901 31.6775 30.1675 32.0519 29.8461 32.3764C29.5988 32.6011 29.4257 32.7009 29.1537 32.3764C28.9064 32.002 28.6839 31.6026 28.5355 31.2032C28.2141 30.2796 27.9915 29.4059 27.9421 28.4823C27.8679 27.7833 27.7937 27.0844 27.7937 26.3854C27.7195 25.7613 27.7195 25.1123 27.7937 24.4383C27.8926 23.0404 28.041 21.7174 28.5603 20.4443C28.7086 20.02 28.9312 19.5956 29.2526 19.2711C29.4752 19.0215 29.7224 19.0215 30.0192 19.346C30.3901 19.7703 30.6126 20.2945 30.7857 20.8437C30.9341 21.4428 31.1072 22.0918 31.2061 22.7159C31.2802 22.9655 31.305 23.315 31.305 23.5646C31.3791 24.3385 31.3791 25.0624 31.4039 25.8113H31.3297C31.305 26.3105 31.3544 26.9346 31.305 27.5836Z" fill="#FF9701"/>
</svg>
