<svg width="70" height="70" viewBox="0 0 70 70" fill="none" xmlns="http://www.w3.org/2000/svg">
<path d="M47.3047 43.6133C46.5497 43.6133 45.9375 44.2254 45.9375 44.9805V54.4141C45.9375 58.1834 42.8709 61.25 39.1016 61.25H24.3403C23.5855 61.25 22.9737 61.8615 22.9731 62.6162L22.9712 65.3345L19.708 62.0714C19.4968 61.5865 19.0133 61.25 18.4542 61.25H9.57031C5.80098 61.25 2.73438 58.1834 2.73438 54.4141V33.3594C2.73438 29.59 5.80098 26.5234 9.57031 26.5234H23.3789C24.1339 26.5234 24.7461 25.9113 24.7461 25.1562C24.7461 24.4012 24.1339 23.7891 23.3789 23.7891H9.57031C4.29324 23.7891 0 28.0823 0 33.3594V54.4141C0 59.6911 4.29324 63.9844 9.57031 63.9844H17.754L23.3692 69.5996C23.6307 69.8611 23.9803 70 24.3362 70C24.5122 70 24.6898 69.966 24.8586 69.8961C25.3695 69.6847 25.7027 69.1865 25.7031 68.6338L25.7064 63.9844H39.1016C44.3786 63.9844 48.6719 59.6911 48.6719 54.4141V44.9805C48.6719 44.2254 48.0596 43.6133 47.3047 43.6133Z" fill="url(#paint0_linear_180_2)"/>
<path d="M50.1286 0H46.6684C35.7112 0 26.7969 8.91434 26.7969 19.8715C26.7969 30.8287 35.7112 39.7429 46.6683 39.7429H50.1285C51.8387 39.7429 53.5314 39.5257 55.172 39.0964L60.2835 44.205C60.5451 44.4663 60.8945 44.6052 61.2503 44.6052C61.4265 44.6052 61.6042 44.5711 61.7734 44.501C62.2841 44.2894 62.6172 43.7909 62.6172 43.238V35.328C64.7813 33.5754 66.579 31.3615 67.8407 28.8883C69.2736 26.0792 70 23.0456 70 19.8715C70 8.91434 61.0857 0 50.1286 0ZM60.4274 33.5692C60.0846 33.8275 59.8828 34.2319 59.8828 34.6613V39.9387L56.5372 36.5948C56.2769 36.3348 55.9277 36.1946 55.5706 36.1946C55.4366 36.1946 55.3012 36.2145 55.1692 36.2551C53.5418 36.7552 51.8459 37.0087 50.1286 37.0087H46.6684C37.2188 37.0087 29.5312 29.321 29.5312 19.8715C29.5312 10.4221 37.2189 2.73438 46.6684 2.73438H50.1286C59.5781 2.73438 67.2656 10.4221 67.2656 19.8715C67.2656 25.3035 64.7732 30.2962 60.4274 33.5692Z" fill="url(#paint1_linear_180_2)"/>
<path d="M54.5556 14.9601C54.3583 12.0978 52.0511 9.79058 49.1887 9.5933C47.5661 9.48187 46.0177 10.0292 44.8324 11.1356C43.6635 12.2268 42.9932 13.7692 42.9932 15.3676C42.9932 16.1227 43.6054 16.7348 44.3604 16.7348C45.1153 16.7348 45.7275 16.1227 45.7275 15.3676C45.7275 14.5119 46.0723 13.7188 46.6982 13.1346C47.3236 12.5509 48.1409 12.262 49.0009 12.3214C50.5086 12.4253 51.7239 13.6406 51.8278 15.1482C51.9328 16.6708 50.9338 18.0164 49.4526 18.3478C48.2525 18.6163 47.4144 19.6592 47.4144 20.8838V24.1685C47.4144 24.9236 48.0266 25.5357 48.7816 25.5357C49.5367 25.5357 50.1487 24.9236 50.1486 24.1685V20.993C52.9035 20.3275 54.7518 17.8067 54.5556 14.9601Z" fill="url(#paint2_linear_180_2)"/>
<path d="M49.7479 28.6098C49.4936 28.3555 49.1408 28.2092 48.7812 28.2092C48.4217 28.2092 48.0689 28.3555 47.8147 28.6098C47.5604 28.8641 47.4141 29.2168 47.4141 29.5764C47.4141 29.9374 47.5605 30.2901 47.8147 30.5444C48.0689 30.7987 48.4217 30.9436 48.7812 30.9436C49.1408 30.9436 49.4936 30.7987 49.7479 30.5444C50.0021 30.2887 50.1484 29.9374 50.1484 29.5764C50.1484 29.2168 50.002 28.8641 49.7479 28.6098Z" fill="url(#paint3_linear_180_2)"/>
<path d="M37.5977 42.3828H8.75C7.99504 42.3828 7.38281 42.9949 7.38281 43.75C7.38281 44.5051 7.99504 45.1172 8.75 45.1172H37.5977C38.3528 45.1172 38.9648 44.5051 38.9648 43.75C38.9648 42.9949 38.3526 42.3828 37.5977 42.3828Z" fill="url(#paint4_linear_180_2)"/>
<path d="M38.5641 50.4396C38.31 50.1854 37.9572 50.0391 37.5977 50.0391C37.2381 50.0391 36.8854 50.1854 36.6311 50.4396C36.3766 50.6939 36.2305 51.0467 36.2305 51.4062C36.2305 51.7658 36.3768 52.1186 36.6311 52.3729C36.8854 52.6271 37.2381 52.7734 37.5977 52.7734C37.9572 52.7734 38.31 52.6271 38.5641 52.3729C38.8186 52.1186 38.9648 51.7672 38.9648 51.4062C38.9648 51.0467 38.8184 50.6939 38.5641 50.4396Z" fill="url(#paint5_linear_180_2)"/>
<path d="M32.2201 50.0391H8.75C7.99504 50.0391 7.38281 50.6512 7.38281 51.4062C7.38281 52.1613 7.99504 52.7734 8.75 52.7734H32.2201C32.9752 52.7734 33.5873 52.1613 33.5873 51.4062C33.5873 50.6512 32.9751 50.0391 32.2201 50.0391Z" fill="url(#paint6_linear_180_2)"/>
<path d="M28.7109 34.7266H8.75C7.99504 34.7266 7.38281 35.3387 7.38281 36.0938C7.38281 36.8488 7.99504 37.4609 8.75 37.4609H28.7109C29.466 37.4609 30.0781 36.8488 30.0781 36.0938C30.0781 35.3387 29.4659 34.7266 28.7109 34.7266Z" fill="url(#paint7_linear_180_2)"/>
<defs>
<linearGradient id="paint0_linear_180_2" x1="11.458" y1="26.8695" x2="20.6697" y2="64.2831" gradientUnits="userSpaceOnUse">
<stop stop-color="#FF9700"/>
<stop offset="0.9977" stop-color="#FF6800"/>
<stop offset="1" stop-color="#FF6802"/>
</linearGradient>
<linearGradient id="paint1_linear_180_2" x1="36.9675" y1="2.97343" x2="46.5366" y2="38.7141" gradientUnits="userSpaceOnUse">
<stop stop-color="#FF9700"/>
<stop offset="0.9977" stop-color="#FF6800"/>
<stop offset="1" stop-color="#FF6802"/>
</linearGradient>
<linearGradient id="paint2_linear_180_2" x1="45.7185" y1="10.6428" x2="50.0612" y2="22.7925" gradientUnits="userSpaceOnUse">
<stop stop-color="#FF9700"/>
<stop offset="0.9977" stop-color="#FF6800"/>
<stop offset="1" stop-color="#FF6802"/>
</linearGradient>
<linearGradient id="paint3_linear_180_2" x1="48.0578" y1="28.3915" x2="48.6283" y2="30.5916" gradientUnits="userSpaceOnUse">
<stop stop-color="#FF9700"/>
<stop offset="0.9977" stop-color="#FF6800"/>
<stop offset="1" stop-color="#FF6802"/>
</linearGradient>
<linearGradient id="paint4_linear_180_2" x1="14.8177" y1="42.5651" x2="14.8704" y2="44.9119" gradientUnits="userSpaceOnUse">
<stop stop-color="#FF9700"/>
<stop offset="0.9977" stop-color="#FF6800"/>
<stop offset="1" stop-color="#FF6802"/>
</linearGradient>
<linearGradient id="paint5_linear_180_2" x1="36.8742" y1="50.2213" x2="37.4447" y2="52.4214" gradientUnits="userSpaceOnUse">
<stop stop-color="#FF9700"/>
<stop offset="0.9977" stop-color="#FF6800"/>
<stop offset="1" stop-color="#FF6802"/>
</linearGradient>
<linearGradient id="paint6_linear_180_2" x1="13.5517" y1="50.2213" x2="13.6152" y2="52.5676" gradientUnits="userSpaceOnUse">
<stop stop-color="#FF9700"/>
<stop offset="0.9977" stop-color="#FF6800"/>
<stop offset="1" stop-color="#FF6802"/>
</linearGradient>
<linearGradient id="paint7_linear_180_2" x1="12.7256" y1="34.9088" x2="12.7989" y2="37.2546" gradientUnits="userSpaceOnUse">
<stop stop-color="#FF9700"/>
<stop offset="0.9977" stop-color="#FF6800"/>
<stop offset="1" stop-color="#FF6802"/>
</linearGradient>
</defs>
</svg>
