<svg width="54" height="50" viewBox="0 0 54 50" fill="none" xmlns="http://www.w3.org/2000/svg">
<path d="M53.5237 24.8323C51.5103 9.06048 41.9466 0.503418 26.6781 0.503418C14.0942 0.503418 0.167969 13.9263 0.167969 26.0068C0.167969 36.0739 5.03375 44.9666 13.0875 49.6646C13.0875 48.9934 13.2552 49.329 13.9264 48.6579C6.54382 44.2954 1.67804 35.235 1.67804 26.0068C1.67804 19.9665 5.70489 12.4162 11.2418 7.71819L13.423 10.5705C8.55724 14.5974 5.20153 20.3021 5.20153 27.1813C5.20153 35.7384 9.39617 42.6176 16.2754 46.1411C16.6109 45.9733 17.1143 45.6377 17.6177 45.4699C16.7787 45.1344 15.9398 44.631 15.1009 44.1276L17.4499 41.7786C19.2955 42.9531 21.3089 43.7921 23.6579 44.2954C24.8324 44.1276 26.0069 44.1276 27.3492 44.1276C28.5237 44.1276 29.866 44.1276 30.8727 44.2954C34.8996 43.4565 38.4231 41.4431 41.1076 38.4229C44.2955 34.7317 45.6378 30.2014 44.9667 25.6712C44.7989 24.1612 44.4633 22.8189 44.1278 21.4766L46.8123 19.9665C47.3157 21.6444 47.819 23.49 47.9868 25.5035C48.658 30.8726 47.1479 36.0739 43.4566 40.2686C41.4432 42.4498 38.5908 44.4632 36.0741 45.6377C36.5774 45.8055 37.2486 46.3089 37.5841 46.4766C39.9331 45.1344 42.4499 42.9531 44.2955 40.9397C48.1546 36.4095 49.8325 30.8726 49.1613 25.1679C48.8258 22.9867 48.3224 20.9732 47.819 19.1276L50.5036 18.1209C51.1748 20.3021 52.0137 22.8189 52.3493 25.3357C53.1882 31.5437 50.5036 38.2552 46.1412 43.1209C44.4633 45.1344 42.4499 46.8122 40.2687 48.1545C40.9398 48.8256 40.9398 48.4901 40.9398 49.1612C43.4566 47.6511 45.6378 45.9733 47.4835 43.7921C52.1815 38.4229 54.3627 31.7115 53.5237 24.8323ZM14.0942 43.4565C9.22838 39.933 6.20825 34.2283 6.20825 27.1813C6.20825 20.9732 9.56395 15.4363 14.0942 11.5773L15.4364 13.2551C11.7452 16.2753 9.22838 20.6377 9.22838 26.0068C9.22838 32.2149 12.0807 37.584 16.4432 40.9397L14.0942 43.4565ZM17.2821 40.2686C13.0875 37.2484 10.4029 32.0471 10.4029 26.1746C10.4029 21.141 12.7519 16.9464 16.1076 14.2618L17.7854 16.443C14.9331 19.1276 13.0875 22.8189 13.0875 27.0135C13.0875 31.8793 15.4364 36.0739 18.9599 38.5907L17.2821 40.2686ZM20.47 17.9531L19.2955 16.443C21.6445 14.5974 24.3291 13.5907 27.517 13.5907C35.4029 13.5907 40.2687 19.4632 40.2687 28.8592C40.2687 33.0538 34.2284 39.7652 27.0136 39.7652C24.6646 39.7652 22.6512 39.2619 20.8056 38.2552L21.4767 37.584C21.6445 37.4162 21.6445 37.0807 21.4767 36.7451C21.3089 36.5773 20.9734 36.5773 20.6378 36.7451L19.7989 37.584C16.2754 35.4028 14.0942 31.3759 14.0942 26.8457C14.0942 22.9867 15.772 19.4632 18.2888 17.1142L19.4633 18.4565C19.6311 18.6243 19.7989 18.6243 19.9667 18.6243C20.1344 18.6243 20.1344 18.6243 20.3022 18.4565C20.6378 18.4565 20.6378 18.1209 20.47 17.9531ZM40.2687 37.584C37.0808 41.2753 32.215 43.4565 27.3492 43.4565C23.9935 43.4565 20.9734 42.4498 18.4566 40.9397L20.3022 39.0941C22.3157 40.2686 24.6646 40.9397 27.3492 40.9397C35.4029 40.9397 41.7788 33.7249 41.7788 29.027C41.7788 19.1276 36.2418 12.584 27.8526 12.584C24.4969 12.584 21.4767 13.7585 18.9599 15.6041L17.2821 13.5907C20.3022 11.4095 23.8257 10.4028 27.3492 10.4028C27.517 10.4028 27.8526 10.4028 28.0204 10.4028C35.7385 10.7383 40.6043 14.094 42.9533 20.8055L42.2821 21.141C41.9466 21.3088 41.9466 21.6444 42.1143 21.98C42.2821 22.1477 42.4499 22.3155 42.6177 22.3155C42.7855 22.3155 42.7855 22.3155 42.9533 22.3155L43.4566 21.98C43.7922 23.1545 44.1278 24.4967 44.2955 25.839C44.4633 29.8659 43.1211 34.0605 40.2687 37.584ZM43.7922 20.1343C41.2754 13.0873 36.0741 9.56383 28.0204 9.06048C27.6848 9.06048 27.517 9.06048 27.1814 9.06048C23.4902 9.06048 19.6311 10.235 16.4432 12.584L15.1009 10.9061C18.9599 7.88598 23.6579 6.20812 28.1881 6.20812C37.4163 6.20812 43.6244 10.4028 46.6445 18.6243L43.7922 20.1343ZM47.3157 18.1209C44.2956 9.56383 37.5841 5.03363 28.0204 5.03363C23.3224 5.03363 18.4566 6.87927 14.2619 9.89941L12.0807 6.87927C16.2754 3.69134 22.1479 1.17456 26.8459 1.17456C38.0875 1.17456 46.4768 7.38262 50.168 16.7786L47.3157 18.1209Z" fill="#FF9701"/>
<path d="M17.1143 26.5101C17.1143 32.047 21.6445 36.9128 26.8458 36.9128C31.0405 36.9128 34.7317 34.396 36.2418 30.8725L36.4096 31.0403H36.5774C36.7452 31.0403 36.9129 30.8725 37.0807 30.7047C37.2485 30.3692 37.0807 30.0336 36.9129 30.0336L36.5774 29.8658C36.7452 29.0269 36.9129 28.3557 36.9129 27.5168C36.9129 19.7987 31.7116 17.1141 27.0136 17.1141C21.6445 16.9463 17.1143 21.141 17.1143 26.5101ZM27.0136 18.1208C32.5505 18.1208 35.9062 21.6443 35.9062 27.5168C35.9062 28.188 35.7384 28.8591 35.5707 29.3625L33.2217 28.188C33.3894 27.6846 33.3894 27.1812 33.3894 26.6779C33.3894 23.1544 30.5371 20.4698 27.1814 20.4698C23.6579 20.4698 20.9733 23.3222 20.9733 26.6779C20.9733 30.2014 23.8257 32.886 27.1814 32.886C29.6982 32.886 31.8794 31.3759 32.8861 29.1947L35.2351 30.3692C33.8928 33.5571 30.5371 35.7383 26.678 35.7383C22.1478 35.7383 18.121 31.3759 18.121 26.3423C18.121 21.8121 22.1478 18.1208 27.0136 18.1208ZM29.866 27.6846L32.0472 28.8591C31.2082 30.7047 29.3626 31.8792 27.3492 31.8792C24.4968 31.8792 22.1478 29.5302 22.1478 26.6779C22.1478 23.8255 24.4968 21.4765 27.3492 21.4765C30.2015 21.4765 32.5505 23.8255 32.5505 26.6779C32.5505 27.0135 32.5505 27.349 32.3827 27.6846L30.3693 26.6779C30.0337 26.5101 29.6982 26.6779 29.6982 26.8457C29.3626 27.1812 29.5304 27.5168 29.866 27.6846Z" fill="#FF9701"/>
<path d="M26.8457 0C12.0806 0 0 12.0806 0 26.8457C0 36.2417 4.86578 44.6309 12.2483 49.3289C12.5839 48.8256 12.9195 48.3222 13.4228 47.8189C6.54363 43.4564 1.84564 35.7383 1.84564 26.8457C1.84564 13.0873 13.0873 1.84564 26.8457 1.84564C40.6041 1.84564 51.8457 13.0873 51.8457 26.8457C51.8457 35.7383 47.1477 43.4564 40.2685 47.8189C40.7719 48.3222 41.1074 48.8256 41.443 49.3289C48.8256 44.6309 53.6914 36.2417 53.6914 26.8457C53.6914 12.0806 41.6108 0 26.8457 0Z" fill="#FF9701"/>
<path d="M26.8454 43.9597C19.9662 43.9597 14.0937 46.3087 12.248 49.3289C12.248 49.3289 12.7514 49.6644 13.7581 49.8322C16.4427 47.651 21.3085 46.1409 26.8454 46.1409C32.5501 46.1409 37.5837 47.651 40.1004 50C40.7716 49.8322 41.2749 49.4966 41.4427 49.4966C39.5971 46.3087 33.7246 43.9597 26.8454 43.9597Z" fill="#FF9701"/>
</svg>
