<svg width="70" height="70" viewBox="0 0 70 70" fill="none" xmlns="http://www.w3.org/2000/svg">
<g clip-path="url(#clip0_60_513)">
<path d="M69.8717 16.5996C69.6308 15.7036 69.043 14.9398 68.2388 14.4768C67.434 14.0115 66.4771 13.8856 65.5795 14.1265C64.683 14.368 63.9192 14.9552 63.4562 15.7594L62.8729 16.7744C62.3187 16.456 61.6108 16.6434 61.2867 17.1948L58.3238 22.2451L57.3088 21.6618C57.04 21.5064 56.7199 21.4642 56.4203 21.5451C56.1202 21.6265 55.865 21.8236 55.7106 22.0936C55.3945 22.6512 55.5871 23.3597 56.1424 23.6798L57.1573 24.263L47.2424 41.4451L44.7927 47.9894L43.6262 50.1703C42.9433 51.3584 43.0162 52.8352 43.813 53.9499L41.1885 57.1691L40.4537 55.3265C40.1222 54.5052 39.355 53.9425 38.4728 53.8736C37.59 53.8041 36.7442 54.2404 36.2891 54.9996L35.8693 55.711L35.4729 51.0451C35.3818 49.9413 34.5268 49.0539 33.4276 48.9206C32.3277 48.7879 31.2866 49.4469 30.9352 50.4972L28.0657 59.1056C27.8652 59.7144 28.1933 60.3706 28.8004 60.5756C28.9143 60.6286 29.0368 60.6605 29.1621 60.6685C29.6633 60.6702 30.1099 60.3506 30.2705 59.8756L33.128 51.2672L33.5364 56.0026C33.6207 57.013 34.3469 57.8531 35.3345 58.0821C36.3221 58.311 37.3439 57.8759 37.8639 57.0062L38.2956 56.2942L39.019 58.1259C39.326 58.8977 40.0203 59.4485 40.8422 59.5709C41.664 59.6934 42.4888 59.3693 43.0082 58.7206L45.7262 55.2798C46.0269 55.3584 46.3368 55.3977 46.6477 55.3966C47.8979 55.4063 49.0587 54.7478 49.6921 53.6697L50.8585 51.7217L55.3028 46.3211L65.3226 28.9289L66.3376 29.5122C66.6081 29.6671 66.8052 29.9228 66.8855 30.2241C66.9664 30.5231 66.9242 30.8421 66.7693 31.1103L62.1034 39.1942C61.9274 39.4596 61.8676 39.7854 61.9383 40.0964C62.0089 40.4068 62.2031 40.675 62.4765 40.8385C62.7453 40.9946 63.0654 41.0367 63.365 40.9558C63.6652 40.8744 63.9203 40.6773 64.0747 40.4074L68.7406 32.3235C69.2059 31.5187 69.3318 30.5619 69.0903 29.6642C68.8488 28.7677 68.2616 28.0039 67.4573 27.5409L66.4424 26.9577L69.3585 21.9068C69.6769 21.3526 69.4895 20.6452 68.9388 20.3205L69.522 19.3056C69.9999 18.4882 70.1263 17.512 69.8717 16.5996ZM65.4741 16.9259C65.6285 16.6559 65.8848 16.4583 66.1861 16.378C66.4857 16.304 66.8023 16.3455 67.0723 16.4948C67.3429 16.6491 67.5399 16.9054 67.6208 17.2061C67.6949 17.5057 67.6533 17.8224 67.504 18.0924L66.9208 19.1073L64.8909 17.9409L65.4741 16.9259ZM49.5753 49.4942L48.9921 49.1559L47.2657 48.1523L48.922 43.7199L52.5963 45.8427L49.5753 49.4942ZM46.0759 52.8649C45.5832 52.5214 45.4317 51.8607 45.7262 51.3367L46.3094 50.3223L48.3388 51.4888L47.7555 52.4918C47.5921 52.7754 47.3175 52.9771 46.998 53.0483C46.6785 53.1189 46.3442 53.0528 46.0759 52.8649ZM53.9262 43.9301L49.8903 41.5972L59.222 25.4295L63.2579 27.7625L53.9262 43.9301ZM64.4244 25.7445L60.3885 23.4115L62.7214 19.3756L66.7573 21.7085L64.4244 25.7445Z" fill="url(#paint0_linear_60_513)"/>
<path d="M18.4053 52.2807L14.2766 56.3986L11.8035 53.9256C11.3484 53.4734 10.6137 53.4734 10.1586 53.9256C9.93764 54.1449 9.81348 54.4427 9.81348 54.7537C9.81348 55.0647 9.93764 55.3632 10.1586 55.5819L12.6317 58.0549C13.0691 58.4889 13.6603 58.7321 14.2766 58.7315C14.8962 58.7349 15.4926 58.4917 15.9328 58.0549L20.0502 53.9256C20.4466 53.4625 20.4198 52.7728 19.9893 52.3422C19.5581 51.9111 18.8684 51.8843 18.4053 52.2807Z" fill="url(#paint1_linear_60_513)"/>
<path d="M4.66504 55.4191C4.66504 60.8955 9.10423 65.3341 14.58 65.3341C20.0558 65.3341 24.495 60.8955 24.495 55.4191C24.495 54.7749 23.9727 54.2526 23.3285 54.2526C22.6844 54.2526 22.1621 54.7749 22.1621 55.4191C22.1621 59.6066 18.7675 63.0012 14.58 63.0012C10.3926 63.0012 6.99798 59.6066 6.99798 55.4191C6.99798 51.2316 10.3926 47.837 14.58 47.837C16.2215 47.8325 17.8191 48.365 19.1291 49.3538C19.6446 49.7405 20.3759 49.6357 20.7621 49.1203C21.1488 48.6048 21.0446 47.874 20.5291 47.4873C17.5247 45.2341 13.5047 44.8719 10.146 46.5509C6.78667 48.2306 4.66504 51.6639 4.66504 55.4191Z" fill="url(#paint2_linear_60_513)"/>
<path d="M41.9918 9.34319C42.636 9.34319 43.1583 8.82147 43.1583 8.17672C43.1583 7.53254 42.636 7.01025 41.9918 7.01025H11.6635C11.0194 7.01025 10.4971 7.53254 10.4971 8.17672V12.8426C10.4971 13.4873 11.0194 14.0091 11.6635 14.0091H41.9918C42.636 14.0091 43.1583 13.4873 43.1583 12.8426C43.1583 12.1984 42.636 11.6761 41.9918 11.6761H12.83V9.34319H41.9918Z" fill="url(#paint3_linear_60_513)"/>
<path d="M15.1626 16.342C14.5184 16.342 13.9961 16.8643 13.9961 17.5085C13.9961 18.1533 14.5184 18.675 15.1626 18.675H38.4918C39.136 18.675 39.6583 18.1533 39.6583 17.5085C39.6583 16.8643 39.136 16.342 38.4918 16.342H15.1626Z" fill="url(#paint4_linear_60_513)"/>
<path d="M45.4938 24.5078H19.8315C19.1873 24.5078 18.665 25.0301 18.665 25.6742C18.665 26.319 19.1873 26.8407 19.8315 26.8407H45.4938C46.138 26.8407 46.6603 26.319 46.6603 25.6742C46.6603 25.0301 46.138 24.5078 45.4938 24.5078Z" fill="url(#paint5_linear_60_513)"/>
<path d="M33.8283 32.6723C33.8283 32.0281 33.306 31.5059 32.6618 31.5059H9.33248C8.68831 31.5059 8.16602 32.0281 8.16602 32.6723C8.16602 33.317 8.68831 33.8387 9.33248 33.8387H32.6618C33.306 33.8387 33.8283 33.317 33.8283 32.6723Z" fill="url(#paint6_linear_60_513)"/>
<path d="M45.491 31.5059H37.3257C36.6815 31.5059 36.1592 32.0281 36.1592 32.6723C36.1592 33.317 36.6815 33.8387 37.3257 33.8387H45.491C46.1352 33.8387 46.6575 33.317 46.6575 32.6723C46.6575 32.0281 46.1352 31.5059 45.491 31.5059Z" fill="url(#paint7_linear_60_513)"/>
<path d="M20.9972 39.671C21.6413 39.671 22.1636 39.1492 22.1636 38.5044C22.1636 37.8602 21.6413 37.3379 20.9972 37.3379H9.33248C8.68831 37.3379 8.16602 37.8602 8.16602 38.5044C8.16602 39.1492 8.68831 39.671 9.33248 39.671H20.9972Z" fill="url(#paint8_linear_60_513)"/>
<path d="M25.6635 39.671H33.8288C34.473 39.671 34.9953 39.1492 34.9953 38.5044C34.9953 37.8602 34.473 37.3379 33.8288 37.3379H25.6635C25.0194 37.3379 24.4971 37.8602 24.4971 38.5044C24.4971 39.1492 25.0194 39.671 25.6635 39.671Z" fill="url(#paint9_linear_60_513)"/>
<path d="M52.4911 53.6695C51.8469 53.6695 51.3246 54.1918 51.3246 54.836V66.5006C51.3246 67.1454 50.8023 67.6671 50.1581 67.6671H3.4994C2.85523 67.6671 2.33294 67.1454 2.33294 66.5006V3.51137C2.33294 2.86719 2.85523 2.3449 3.4994 2.3449H50.1581C50.8023 2.3449 51.3246 2.86719 51.3246 3.51137V25.418C51.3246 26.0621 51.8469 26.5844 52.4911 26.5844C53.1352 26.5844 53.6575 26.0621 53.6575 25.418V3.51137C53.6575 1.57883 52.0906 0.0119629 50.1581 0.0119629H3.4994C1.56687 0.0119629 0 1.57883 0 3.51137V66.5006C0 68.4337 1.56687 70 3.4994 70H50.1581C52.0906 70 53.6575 68.4337 53.6575 66.5006V54.836C53.6575 54.1918 53.1352 53.6695 52.4911 53.6695Z" fill="url(#paint10_linear_60_513)"/>
</g>
<defs>
<linearGradient id="paint0_linear_60_513" x1="37.8927" y1="17.1174" x2="48.5533" y2="54.1141" gradientUnits="userSpaceOnUse">
<stop stop-color="#FF9700"/>
<stop offset="0.9977" stop-color="#FF6800"/>
<stop offset="1" stop-color="#FF6802"/>
</linearGradient>
<linearGradient id="paint1_linear_60_513" x1="12.2894" y1="52.449" x2="13.223" y2="58.0742" gradientUnits="userSpaceOnUse">
<stop stop-color="#FF9700"/>
<stop offset="0.9977" stop-color="#FF6800"/>
<stop offset="1" stop-color="#FF6802"/>
</linearGradient>
<linearGradient id="paint2_linear_60_513" x1="9.33329" y1="46.8263" x2="13.4707" y2="62.7812" gradientUnits="userSpaceOnUse">
<stop stop-color="#FF9700"/>
<stop offset="0.9977" stop-color="#FF6800"/>
<stop offset="1" stop-color="#FF6802"/>
</linearGradient>
<linearGradient id="paint3_linear_60_513" x1="18.186" y1="7.4768" x2="18.5189" y2="13.4682" gradientUnits="userSpaceOnUse">
<stop stop-color="#FF9700"/>
<stop offset="0.9977" stop-color="#FF6800"/>
<stop offset="1" stop-color="#FF6802"/>
</linearGradient>
<linearGradient id="paint4_linear_60_513" x1="20.0373" y1="16.4976" x2="20.0845" y2="18.4998" gradientUnits="userSpaceOnUse">
<stop stop-color="#FF9700"/>
<stop offset="0.9977" stop-color="#FF6800"/>
<stop offset="1" stop-color="#FF6802"/>
</linearGradient>
<linearGradient id="paint5_linear_60_513" x1="25.2555" y1="24.6633" x2="25.2988" y2="26.6656" gradientUnits="userSpaceOnUse">
<stop stop-color="#FF9700"/>
<stop offset="0.9977" stop-color="#FF6800"/>
<stop offset="1" stop-color="#FF6802"/>
</linearGradient>
<linearGradient id="paint6_linear_60_513" x1="14.2073" y1="31.6614" x2="14.2545" y2="33.6635" gradientUnits="userSpaceOnUse">
<stop stop-color="#FF9700"/>
<stop offset="0.9977" stop-color="#FF6800"/>
<stop offset="1" stop-color="#FF6802"/>
</linearGradient>
<linearGradient id="paint7_linear_60_513" x1="38.6306" y1="31.6614" x2="38.7457" y2="33.658" gradientUnits="userSpaceOnUse">
<stop stop-color="#FF9700"/>
<stop offset="0.9977" stop-color="#FF6800"/>
<stop offset="1" stop-color="#FF6802"/>
</linearGradient>
<linearGradient id="paint8_linear_60_513" x1="11.4613" y1="37.4934" x2="11.5477" y2="39.4931" gradientUnits="userSpaceOnUse">
<stop stop-color="#FF9700"/>
<stop offset="0.9977" stop-color="#FF6800"/>
<stop offset="1" stop-color="#FF6802"/>
</linearGradient>
<linearGradient id="paint9_linear_60_513" x1="26.9685" y1="37.4934" x2="27.0836" y2="39.4902" gradientUnits="userSpaceOnUse">
<stop stop-color="#FF9700"/>
<stop offset="0.9977" stop-color="#FF6800"/>
<stop offset="1" stop-color="#FF6802"/>
</linearGradient>
<linearGradient id="paint10_linear_60_513" x1="12.6317" y1="4.67744" x2="30.8731" y2="58.6064" gradientUnits="userSpaceOnUse">
<stop stop-color="#FF9700"/>
<stop offset="0.9977" stop-color="#FF6800"/>
<stop offset="1" stop-color="#FF6802"/>
</linearGradient>
<clipPath id="clip0_60_513">
<rect width="70" height="70" fill="white"/>
</clipPath>
</defs>
</svg>
