<svg width="54" height="50" viewBox="0 0 54 50" fill="none" xmlns="http://www.w3.org/2000/svg">
<path d="M12.2483 49.3291C4.86578 44.6311 0 36.2418 0 26.8458C0 13.1078 10.7116 1.69384 24.0598 0.172363V0.506685L23.8065 2.03055C11.4696 3.54028 1.84564 14.1157 1.84564 26.8458C1.84564 35.7385 6.54363 43.4566 13.4228 47.819C12.9195 48.3224 12.5839 48.8257 12.2483 49.3291Z" fill="#FF9701"/>
<path d="M40.2685 47.819C47.1477 43.4566 51.8457 35.7385 51.8457 26.8458C51.8457 14.1157 42.2217 3.54028 29.8848 2.03055L29.6315 0.506685V0.172363C42.9798 1.69384 53.6914 13.1078 53.6914 26.8458C53.6914 36.2418 48.8256 44.6311 41.443 49.3291C41.1074 48.8257 40.7719 48.3224 40.2685 47.819Z" fill="#FF9701"/>
<path d="M26.8454 43.9598C19.9662 43.9598 14.0937 46.3088 12.248 49.329C12.248 49.329 12.7514 49.6645 13.7581 49.8323C16.4427 47.6511 21.3085 46.1411 26.8454 46.1411C32.5501 46.1411 37.5837 47.6511 40.1004 50.0001C40.7716 49.8323 41.2749 49.4968 41.4427 49.4968C39.5971 46.3088 33.7246 43.9598 26.8454 43.9598Z" fill="#FF9701"/>
<path d="M34.5704 20.2816C30.6552 16.3664 24.0112 16.1291 20.3333 19.807C17.3672 22.773 16.5367 27.1628 17.9605 30.7221L17.7232 30.7221L17.6045 30.8407C17.4859 30.9594 17.4859 31.1966 17.4859 31.4339C17.6045 31.7899 17.9605 31.9085 18.0791 31.7898L18.435 31.6712C18.9096 32.3831 19.2655 32.9763 19.8587 33.5695C25.3163 39.027 30.8925 37.2474 34.2144 33.9254C38.1296 30.2475 38.3669 24.0781 34.5704 20.2816ZM33.5026 33.2136C29.5874 37.1288 24.7231 37.0101 20.5706 32.8576C20.096 32.3831 19.7401 31.7898 19.5028 31.3153L21.9943 30.4848C22.2316 30.9594 22.5875 31.3153 22.9434 31.6712C25.4349 34.1627 29.3501 34.0441 31.723 31.6712C34.2144 29.1797 34.0958 25.2645 31.723 22.8917C29.2315 20.4002 25.3163 20.5188 22.9434 22.8917C21.1638 24.6713 20.6892 27.2814 21.5197 29.5356L19.0282 30.3661C17.7232 27.1628 18.5537 23.2476 21.2824 20.5188C24.4858 17.3155 30.4179 17.5528 33.9772 21.112C37.1805 24.3154 36.9432 29.7729 33.5026 33.2136ZM24.7231 28.4679L22.3502 29.1797C21.6384 27.2814 22.1129 25.1459 23.5366 23.7222C25.5536 21.7053 28.8755 21.7053 30.8925 23.7222C32.9094 25.7391 32.9094 29.0611 30.8925 31.078C28.8755 33.0949 25.5536 33.0949 23.5366 31.078C23.2994 30.8407 23.0621 30.6034 22.9434 30.2475L25.079 29.5356C25.4349 29.417 25.5536 29.0611 25.4349 28.9424C25.4349 28.4679 25.079 28.3492 24.7231 28.4679Z" fill="#FF9701"/>
<path d="M1.18446 24.8266C2.98609 10.6527 10.9908 2.43185 23.8063 1.18086C24.9489 1.06931 26.1299 1.01318 27.348 1.01318C28.189 1.01318 29.0361 1.07496 29.8846 1.19385C41.4097 2.80881 53.1846 14.9625 53.1846 25.9763C53.1846 35.8301 48.4424 44.5343 40.5933 49.1328C40.5933 48.4759 40.4298 48.8043 39.7757 48.1474C46.9707 43.8774 51.7129 35.0089 51.7129 25.9763C51.7129 20.064 47.7883 12.6736 42.3921 8.07511L40.2663 10.867C45.0085 14.8086 48.2789 20.3924 48.2789 27.1259C48.2789 35.5016 44.1908 42.2351 37.4864 45.6839C37.1594 45.5197 36.6688 45.1913 36.1782 45.027C36.9959 44.6986 37.8135 44.2059 38.6311 43.7132L36.3418 41.414C34.543 42.5636 32.5808 43.3847 30.2914 43.8774C29.1468 43.7132 28.0021 43.7132 26.6939 43.7132C25.5493 43.7132 24.2411 43.7132 23.26 43.8774C19.3354 43.0563 15.9015 41.0855 13.2851 38.1293C10.1782 34.5163 8.87001 30.082 9.5241 25.6478C9.68762 24.1697 10.0147 22.8559 10.3417 21.542L7.72535 20.064C7.23479 21.7063 6.74421 23.5128 6.58069 25.4836C5.9266 30.739 7.39831 35.8301 10.9958 39.9359C12.9581 42.0709 15.7379 44.0416 18.1908 45.1913C17.7002 45.3555 17.0461 45.8482 16.7191 46.0124C14.4298 44.6986 11.9769 42.5636 10.1782 40.5928C6.41718 36.1586 4.78195 30.739 5.43604 25.1551C5.76308 23.0201 6.25365 21.0493 6.74422 19.2428L4.12786 18.2574C3.47377 20.3924 2.65615 22.8559 2.32911 25.3193C1.5115 31.3959 4.12786 37.9651 8.37944 42.7278C10.0147 44.6986 11.9769 46.3409 14.1027 47.6547C13.4486 48.3116 13.4486 47.9832 13.4486 48.6401C10.9958 47.162 8.87001 45.5197 7.07126 43.3847C2.49264 38.1293 0.366844 31.5601 1.18446 24.8266ZM39.6122 43.0563C44.3544 39.6074 47.2978 34.0236 47.2978 27.1259C47.2978 21.0493 44.0273 15.6297 39.6122 11.8524L38.304 13.4947C41.9015 16.4509 44.3544 20.7209 44.3544 25.9763C44.3544 32.0528 41.5745 37.3082 37.3229 40.5928L39.6122 43.0563ZM36.5053 39.9359C40.5933 36.9797 43.2097 31.8886 43.2097 26.1405C43.2097 21.2136 40.9204 17.1078 37.6499 14.4801L36.0147 16.6151C38.7946 19.2428 40.5933 22.8559 40.5933 26.9616C40.5933 31.7243 38.304 35.8301 34.8701 38.2936L36.5053 39.9359ZM33.3984 18.0932L34.543 16.6151C32.2537 14.8086 29.6374 13.8232 26.5304 13.8232C18.8449 13.8232 14.1027 19.5713 14.1027 28.7682C14.1027 32.874 19.9895 39.4432 27.021 39.4432C29.3103 39.4432 31.2726 38.9505 33.0713 37.9651L32.4172 37.3082C32.2537 37.144 32.2537 36.8155 32.4172 36.487C32.5808 36.3228 32.9078 36.3228 33.2348 36.487L34.0525 37.3082C37.4864 35.1732 39.6122 31.2316 39.6122 26.7974C39.6122 23.0201 37.977 19.5713 35.5242 17.272L34.3795 18.5859C34.216 18.7501 34.0525 18.7501 33.8889 18.7501C33.7254 18.7501 33.7254 18.7501 33.5619 18.5859C33.2348 18.5859 33.2348 18.2574 33.3984 18.0932ZM14.1027 37.3082C17.2096 40.9213 21.9518 43.0563 26.6939 43.0563C29.9644 43.0563 32.9078 42.0709 35.3606 40.5928L33.5619 38.7863C31.5996 39.9359 29.3103 40.5928 26.6939 40.5928C18.8449 40.5928 12.631 33.5309 12.631 28.9324C12.631 19.2428 18.0273 12.8378 26.2034 12.8378C29.4738 12.8378 32.4172 13.9874 34.8701 15.794L36.5053 13.8232C33.5619 11.6882 30.1279 10.7028 26.6939 10.7028C26.5304 10.7028 26.2034 10.7028 26.0399 10.7028C18.5178 11.0313 13.7757 14.3159 11.4864 20.8851L12.1405 21.2136C12.4675 21.3778 12.4675 21.7063 12.304 22.0347C12.1405 22.199 11.9769 22.3632 11.8134 22.3632C11.6499 22.3632 11.6499 22.3632 11.4864 22.3632L10.9958 22.0347C10.6688 23.1843 10.3417 24.4982 10.1782 25.812C10.0147 29.7536 11.3228 33.8593 14.1027 37.3082ZM10.6688 20.2282C13.1216 13.3305 18.1908 9.88164 26.0399 9.38895C26.3669 9.38895 26.5304 9.38895 26.8575 9.38895C30.455 9.38895 34.216 10.5386 37.3229 12.8378L38.6311 11.1955C34.8701 8.23934 30.2914 6.59703 25.8763 6.59703C16.8826 6.59703 10.8323 10.7028 7.88887 18.7501L10.6688 20.2282ZM7.23478 18.2574C10.1782 9.88165 16.7191 5.44741 26.0399 5.44741C30.6185 5.44741 35.3606 7.25395 39.4487 10.2101L41.5745 7.25395C38.2591 4.72333 33.8682 2.62478 29.8846 1.92191C28.9562 1.75811 28.0499 1.67011 27.1845 1.67011C26.0267 1.67011 24.8999 1.73797 23.8063 1.87021C14.5515 2.98929 7.67221 8.71858 4.45491 16.9436L7.23478 18.2574Z" fill="#FF9701"/>
<path d="M23.2998 0.506592V11.6501H30.3911V0.506592" stroke="#FF9701" stroke-width="3"/>
<rect x="23.8066" y="0.00012207" width="6.07827" height="11.1435" fill="white"/>
</svg>
