<svg width="70" height="70" viewBox="0 0 70 70" fill="none" xmlns="http://www.w3.org/2000/svg">
<g clip-path="url(#clip0_60_434)">
<path d="M68.834 25.6666H45.2488C42.7833 22.6283 39.684 20.1652 36.1675 18.4496V13.4166L40.3675 10.2666C40.6612 10.0463 40.8341 9.7005 40.8341 9.33329V1.16666C40.8341 0.522373 40.3118 0 39.6675 0H35.0008C34.6914 0 34.3947 0.123083 34.176 0.341832L32.6675 1.85033L31.159 0.341832C30.9403 0.123083 30.6436 0 30.3342 0H23.3342C23.0248 0 22.7281 0.123083 22.5094 0.341832L21.0009 1.85033L19.4924 0.341832C19.2736 0.123083 18.977 0 18.6676 0H14.0009C13.3566 0 12.8343 0.522373 12.8343 1.16666V9.33329C12.8343 9.7005 13.0072 10.0463 13.3009 10.2666L17.5009 13.4166V18.4613C8.66927 22.7347 0.000976562 34.2135 0.000976562 48.9356C0.000976562 62.3219 9.7811 69.9997 26.8342 69.9997C29.6022 70.0096 32.3653 69.7643 35.0883 69.267C35.2652 69.7083 35.6921 69.9981 36.1675 69.9997H68.834C69.4783 69.9997 70.0007 69.4773 70.0007 68.833V26.8332C70.0007 26.1889 69.4783 25.6666 68.834 25.6666ZM15.1676 8.74996V2.33332H18.1846L20.1761 4.32482C20.6316 4.78025 21.3701 4.78025 21.8257 4.32482L23.8172 2.33332H29.8512L31.8427 4.32482C32.2983 4.78025 33.0368 4.78025 33.4923 4.32482L35.4838 2.33332H38.5008V8.74996L34.6123 11.6666H19.0561L15.1676 8.74996ZM33.8342 13.9999V17.4999H19.8342V13.9999H33.8342ZM35.0008 54.2183C29.5417 58.7385 21.4519 57.9775 16.9316 52.5184C12.4113 47.0593 13.1723 38.9696 18.6314 34.4492C23.3796 30.5175 30.2525 30.5175 35.0007 34.4492V54.2183H35.0008ZM35.0008 26.8332V31.5664C27.9503 27.0441 18.5685 29.0936 14.0463 36.1442C9.524 43.1948 11.5735 52.5765 18.6241 57.0988C23.6139 60.2994 30.0112 60.2994 35.001 57.0988V66.9104C32.3095 67.4252 29.5745 67.6783 26.8343 67.6664C19.468 67.6664 2.33445 65.8417 2.33445 48.9356C2.33445 37.7742 9.02408 23.8862 20.224 19.8333H33.4528C36.753 21.086 39.7203 23.082 42.1246 25.6666H36.1676C35.5232 25.6666 35.0008 26.1889 35.0008 26.8332ZM67.6674 67.6664H37.3342V37.3332H67.6674V67.6664ZM67.6674 34.9999H37.3342V27.9999H67.6674V34.9999Z" fill="url(#paint0_linear_60_434)"/>
<path d="M45.5003 39.6665H40.8337C40.1894 39.6665 39.667 40.1889 39.667 40.8332V45.4998C39.667 46.1441 40.1894 46.6665 40.8337 46.6665H45.5003C46.1446 46.6665 46.667 46.1441 46.667 45.4998V40.8332C46.667 40.1889 46.1446 39.6665 45.5003 39.6665ZM44.3336 44.3332H42.0003V41.9998H44.3336V44.3332Z" fill="url(#paint1_linear_60_434)"/>
<path d="M54.8333 39.6665H50.1667C49.5224 39.6665 49 40.1889 49 40.8332V45.4998C49 46.1441 49.5224 46.6665 50.1667 46.6665H54.8333C55.4776 46.6665 56 46.1441 56 45.4998V40.8332C56 40.1889 55.4776 39.6665 54.8333 39.6665ZM53.6666 44.3332H51.3333V41.9998H53.6666V44.3332Z" fill="url(#paint2_linear_60_434)"/>
<path d="M64.1663 39.6665H59.4997C58.8554 39.6665 58.333 40.1889 58.333 40.8332V45.4998C58.333 46.1441 58.8554 46.6665 59.4997 46.6665H64.1663C64.8106 46.6665 65.333 46.1441 65.333 45.4998V40.8332C65.333 40.1889 64.8106 39.6665 64.1663 39.6665ZM62.9997 44.3332H60.6663V41.9998H62.9997V44.3332Z" fill="url(#paint3_linear_60_434)"/>
<path d="M45.5003 48.9998H40.8337C40.1894 48.9998 39.667 49.5221 39.667 50.1664V54.8331C39.667 55.4774 40.1894 55.9997 40.8337 55.9997H45.5003C46.1446 55.9997 46.667 55.4774 46.667 54.8331V50.1664C46.667 49.5221 46.1446 48.9998 45.5003 48.9998ZM44.3336 53.6664H42.0003V51.3331H44.3336V53.6664Z" fill="url(#paint4_linear_60_434)"/>
<path d="M54.8333 48.9998H50.1667C49.5224 48.9998 49 49.5221 49 50.1664V54.8331C49 55.4774 49.5224 55.9997 50.1667 55.9997H54.8333C55.4776 55.9997 56 55.4774 56 54.8331V50.1664C56 49.5221 55.4776 48.9998 54.8333 48.9998ZM53.6666 53.6664H51.3333V51.3331H53.6666V53.6664Z" fill="url(#paint5_linear_60_434)"/>
<path d="M45.5003 58.333H40.8337C40.1894 58.333 39.667 58.8554 39.667 59.4997V64.1663C39.667 64.8106 40.1894 65.333 40.8337 65.333H45.5003C46.1446 65.333 46.667 64.8106 46.667 64.1663V59.4997C46.667 58.8554 46.1446 58.333 45.5003 58.333ZM44.3336 62.9997H42.0003V60.6663H44.3336V62.9997Z" fill="url(#paint6_linear_60_434)"/>
<path d="M54.8333 58.333H50.1667C49.5224 58.333 49 58.8554 49 59.4997V64.1663C49 64.8106 49.5224 65.333 50.1667 65.333H54.8333C55.4776 65.333 56 64.8106 56 64.1663V59.4997C56 58.8554 55.4776 58.333 54.8333 58.333ZM53.6666 62.9997H51.3333V60.6663H53.6666V62.9997Z" fill="url(#paint7_linear_60_434)"/>
<path d="M64.1663 48.9998H59.4997C58.8554 48.9998 58.333 49.5221 58.333 50.1664V64.1664C58.333 64.8106 58.8554 65.333 59.4997 65.333H64.1663C64.8106 65.333 65.333 64.8106 65.333 64.1664V50.1664C65.333 49.5221 64.8106 48.9998 64.1663 48.9998ZM62.9997 62.9997H60.6663V51.3331H62.9997V62.9997Z" fill="url(#paint8_linear_60_434)"/>
<path d="M65.3333 30.3333H63V32.6666H65.3333V30.3333Z" fill="url(#paint9_linear_60_434)"/>
<path d="M60.6663 30.3333H58.333V32.6666H60.6663V30.3333Z" fill="url(#paint10_linear_60_434)"/>
<path d="M56.0003 30.3333H53.667V32.6666H56.0003V30.3333Z" fill="url(#paint11_linear_60_434)"/>
<g clip-path="url(#clip1_60_434)">
<path d="M21.955 48.8726H24.1823V50.782C24.1823 50.8749 24.212 50.9509 24.2718 51.0104C24.3315 51.0702 24.4077 51.1001 24.5006 51.1001H26.161C26.2472 51.1001 26.3217 51.0702 26.3847 51.0104C26.4477 50.9509 26.4791 50.8748 26.4791 50.782V48.8726H31.5004C31.5931 48.8726 31.6693 48.8431 31.7291 48.7833C31.7889 48.7235 31.8186 48.6474 31.8186 48.5545V47.2817C31.8186 47.1894 31.7889 47.1128 31.7291 47.0533C31.6695 46.9935 31.5931 46.9636 31.5004 46.9636H26.4789V45.7902H29.8596C31.1853 45.7902 32.2673 45.3863 33.1061 44.5772C33.9445 43.769 34.3639 42.725 34.3639 41.4452C34.3639 40.1662 33.9445 39.1221 33.1061 38.3131C32.2675 37.5049 31.1853 37.1001 29.8596 37.1001H24.5004C24.4075 37.1001 24.3314 37.13 24.2717 37.1895C24.212 37.2493 24.1821 37.3258 24.1821 37.4182V43.6726H21.955C21.8621 43.6726 21.786 43.704 21.7262 43.767C21.6666 43.83 21.6367 43.9045 21.6367 43.9907V45.4721C21.6367 45.565 21.6664 45.6411 21.7262 45.7008C21.786 45.7607 21.862 45.7902 21.955 45.7902H24.1823V46.9636H21.955C21.8621 46.9636 21.786 46.9935 21.7262 47.0533C21.6666 47.1127 21.6367 47.1892 21.6367 47.2817V48.5545C21.6367 48.6474 21.6664 48.7235 21.7262 48.7832C21.786 48.8431 21.8621 48.8726 21.955 48.8726ZM26.4789 39.2182H29.6608C30.3633 39.2182 30.93 39.4236 31.361 39.8346C31.7918 40.2456 32.0073 40.7827 32.0073 41.4453C32.0073 42.1083 31.7918 42.6455 31.361 43.0561C30.93 43.4674 30.3633 43.6728 29.6608 43.6728H26.4789V39.2182Z" fill="url(#paint12_linear_60_434)"/>
</g>
</g>
<defs>
<linearGradient id="paint0_linear_60_434" x1="16.4799" y1="4.66628" x2="31.0855" y2="60.988" gradientUnits="userSpaceOnUse">
<stop stop-color="#FF9700"/>
<stop offset="0.9977" stop-color="#FF6800"/>
<stop offset="1" stop-color="#FF6802"/>
</linearGradient>
<linearGradient id="paint1_linear_60_434" x1="41.3149" y1="40.1331" x2="42.7754" y2="45.7653" gradientUnits="userSpaceOnUse">
<stop stop-color="#FF9700"/>
<stop offset="0.9977" stop-color="#FF6800"/>
<stop offset="1" stop-color="#FF6802"/>
</linearGradient>
<linearGradient id="paint2_linear_60_434" x1="50.6479" y1="40.1331" x2="52.1084" y2="45.7653" gradientUnits="userSpaceOnUse">
<stop stop-color="#FF9700"/>
<stop offset="0.9977" stop-color="#FF6800"/>
<stop offset="1" stop-color="#FF6802"/>
</linearGradient>
<linearGradient id="paint3_linear_60_434" x1="59.9809" y1="40.1331" x2="61.4414" y2="45.7653" gradientUnits="userSpaceOnUse">
<stop stop-color="#FF9700"/>
<stop offset="0.9977" stop-color="#FF6800"/>
<stop offset="1" stop-color="#FF6802"/>
</linearGradient>
<linearGradient id="paint4_linear_60_434" x1="41.3149" y1="49.4664" x2="42.7754" y2="55.0985" gradientUnits="userSpaceOnUse">
<stop stop-color="#FF9700"/>
<stop offset="0.9977" stop-color="#FF6800"/>
<stop offset="1" stop-color="#FF6802"/>
</linearGradient>
<linearGradient id="paint5_linear_60_434" x1="50.6479" y1="49.4664" x2="52.1084" y2="55.0985" gradientUnits="userSpaceOnUse">
<stop stop-color="#FF9700"/>
<stop offset="0.9977" stop-color="#FF6800"/>
<stop offset="1" stop-color="#FF6802"/>
</linearGradient>
<linearGradient id="paint6_linear_60_434" x1="41.3149" y1="58.7996" x2="42.7754" y2="64.4318" gradientUnits="userSpaceOnUse">
<stop stop-color="#FF9700"/>
<stop offset="0.9977" stop-color="#FF6800"/>
<stop offset="1" stop-color="#FF6802"/>
</linearGradient>
<linearGradient id="paint7_linear_60_434" x1="50.6479" y1="58.7996" x2="52.1084" y2="64.4318" gradientUnits="userSpaceOnUse">
<stop stop-color="#FF9700"/>
<stop offset="0.9977" stop-color="#FF6800"/>
<stop offset="1" stop-color="#FF6802"/>
</linearGradient>
<linearGradient id="paint8_linear_60_434" x1="59.9809" y1="50.0885" x2="66.1931" y2="60.3551" gradientUnits="userSpaceOnUse">
<stop stop-color="#FF9700"/>
<stop offset="0.9977" stop-color="#FF6800"/>
<stop offset="1" stop-color="#FF6802"/>
</linearGradient>
<linearGradient id="paint9_linear_60_434" x1="63.5493" y1="30.4888" x2="64.0361" y2="32.3662" gradientUnits="userSpaceOnUse">
<stop stop-color="#FF9700"/>
<stop offset="0.9977" stop-color="#FF6800"/>
<stop offset="1" stop-color="#FF6802"/>
</linearGradient>
<linearGradient id="paint10_linear_60_434" x1="58.8823" y1="30.4888" x2="59.3692" y2="32.3662" gradientUnits="userSpaceOnUse">
<stop stop-color="#FF9700"/>
<stop offset="0.9977" stop-color="#FF6800"/>
<stop offset="1" stop-color="#FF6802"/>
</linearGradient>
<linearGradient id="paint11_linear_60_434" x1="54.2163" y1="30.4888" x2="54.7031" y2="32.3662" gradientUnits="userSpaceOnUse">
<stop stop-color="#FF9700"/>
<stop offset="0.9977" stop-color="#FF6800"/>
<stop offset="1" stop-color="#FF6802"/>
</linearGradient>
<linearGradient id="paint12_linear_60_434" x1="24.6329" y1="38.0334" x2="27.8041" y2="49.1506" gradientUnits="userSpaceOnUse">
<stop stop-color="#FF9700"/>
<stop offset="0.9977" stop-color="#FF6800"/>
<stop offset="1" stop-color="#FF6802"/>
</linearGradient>
<clipPath id="clip0_60_434">
<rect width="70" height="70" fill="white"/>
</clipPath>
<clipPath id="clip1_60_434">
<rect width="14" height="14" fill="white" transform="translate(21 37.1001)"/>
</clipPath>
</defs>
</svg>
