<svg width="14" height="14" viewBox="0 0 14 14" fill="none" xmlns="http://www.w3.org/2000/svg">
<path fill-rule="evenodd" clip-rule="evenodd" d="M12.5824 9.83502C12.5824 11.3413 11.3419 12.5827 9.83561 12.5827H4.16472C2.65839 12.5827 1.41789 11.3413 1.41789 9.83502V4.16502C1.41789 2.6578 2.65839 1.4173 4.16472 1.4173H9.83561C11.3419 1.4173 12.5824 2.6578 12.5824 4.16502V9.83502ZM9.83544 0H4.16456C1.86076 0 0 1.86076 0 4.16544V9.83544C0 12.1401 1.86076 14 4.16456 14H9.83544C12.1392 14 14 12.1401 14 9.83544V4.16544C14 1.86076 12.1392 0 9.83544 0ZM6.99978 9.12685C5.84788 9.12685 4.78459 8.15217 4.78459 6.91166C4.78459 5.67204 5.75927 4.69647 6.99978 4.69647C8.24028 4.69647 9.21497 5.67204 9.21497 6.91166C9.21497 8.15217 8.24028 9.12685 6.99978 9.12685ZM6.99961 3.36786C5.05024 3.36786 3.3667 4.9628 3.3667 7.00166C3.3667 8.95013 4.96164 10.6337 6.99961 10.6337C8.94898 10.6337 10.6325 9.03874 10.6325 7.00166C10.6325 4.9628 9.03758 3.36786 6.99961 3.36786ZM11.5191 3.36752C11.5191 2.87841 11.1221 2.48145 10.633 2.48145C10.1439 2.48145 9.74691 2.87841 9.74691 3.36752C9.74691 3.85752 10.1439 4.2536 10.633 4.2536C11.1221 4.2536 11.5191 3.85752 11.5191 3.36752Z" fill="url(#paint0_linear_123_12)"/>
<defs>
<linearGradient id="paint0_linear_123_12" x1="3.2958" y1="0.933255" x2="6.2169" y2="12.1976" gradientUnits="userSpaceOnUse">
<stop stop-color="#FF9700"/>
<stop offset="0.9977" stop-color="#FF6800"/>
<stop offset="1" stop-color="#FF6802"/>
</linearGradient>
</defs>
</svg>
