<svg width="70" height="70" viewBox="0 0 70 70" fill="none" xmlns="http://www.w3.org/2000/svg">
<g clip-path="url(#clip0_60_487)">
<path d="M68.8335 0H16.3336C15.6893 0 15.167 0.522374 15.167 1.16666V18.6666H17.5003V2.33333H67.6669V66.4999C67.6781 67.1134 67.2047 67.6273 66.5924 67.6665C66.492 67.6665 66.3917 67.6584 66.2914 67.656C66.0849 67.6502 65.8784 67.6455 65.6754 67.6245C65.6579 67.6245 65.6415 67.6245 65.624 67.6175C61.8137 67.201 58.8039 64.1941 58.3837 60.3842C58.3837 60.3679 58.3779 60.3504 58.3755 60.334C58.3472 60.0568 58.3333 59.7784 58.3335 59.4999V57.1665C58.3335 56.5223 57.8112 55.9999 57.1669 55.9999H17.5003V34.9999H15.167V55.9999H5.83366C5.18937 55.9999 4.66699 56.5223 4.66699 57.1665V59.4999C4.67341 65.2962 9.37069 69.9934 15.167 69.9999H66.6169C68.5101 69.9503 70.0148 68.3936 70.0002 66.4999V1.16666C70.0002 0.522374 69.4778 0 68.8335 0ZM15.167 67.6665C10.6588 67.6614 7.00542 64.008 7.00032 59.4999V58.3332H56.0002V59.4999C56.0018 59.8846 56.024 60.269 56.0667 60.6514C56.0772 60.7529 56.097 60.8509 56.111 60.9512C56.1495 61.2335 56.1962 61.5147 56.258 61.7912C56.279 61.888 56.3059 61.9837 56.3304 62.0805C56.4015 62.3617 56.482 62.6382 56.5754 62.9112C56.6022 62.9894 56.6302 63.0664 56.6594 63.1445C56.7655 63.4339 56.8857 63.7162 57.0175 63.995C57.0455 64.0522 57.0712 64.1117 57.0992 64.1642C57.2455 64.4598 57.406 64.7471 57.581 65.0264C57.6044 65.0637 57.6254 65.1022 57.6487 65.143C57.8389 65.441 58.0442 65.7291 58.2635 66.0064L58.3009 66.0565C58.5555 66.3763 58.8282 66.6813 59.1175 66.97C59.3688 67.219 59.6293 67.4523 59.8992 67.67L15.167 67.6665Z" fill="url(#paint0_linear_60_487)"/>
<path d="M38.4999 32.6666C38.8094 32.6666 39.106 32.5436 39.3247 32.3248L43.9914 27.6582C44.4468 27.2026 44.4468 26.4641 43.9914 26.0085L39.3247 21.3418C39.106 21.1231 38.8094 21 38.4999 21H5.83332C2.61172 21 0 23.6117 0 26.8333C0 30.0549 2.61172 32.6666 5.83332 32.6666H38.4999ZM38.1989 23.5153L41.5169 26.8333L38.1989 30.1513L37.3694 26.8333L38.1989 23.5153ZM9.33331 23.3333H35.8399L35.2566 25.6667H11.6666V28H35.2566L35.8399 30.3333H9.33331V23.3333ZM2.33333 26.8333C2.33333 24.9003 3.9003 23.3333 5.83332 23.3333H6.99998V30.3333H5.83332C3.9003 30.3333 2.33333 28.7663 2.33333 26.8333Z" fill="url(#paint1_linear_60_487)"/>
<path d="M26.8334 50.1664H61.8334C62.4776 50.1664 63 49.6441 63 48.9998V13.9999C62.9999 13.3556 62.4775 12.8334 61.8331 12.8335C61.5237 12.8335 61.2273 12.9564 61.0085 13.175L26.0086 48.1749C25.553 48.6307 25.5532 49.3693 26.0089 49.8249C26.2276 50.0435 26.5241 50.1664 26.8334 50.1664ZM60.6667 16.8162V19.8332H58.3334V22.1665H60.6667V24.4998H58.3334V26.8332H60.6667V29.1665H58.3334V31.4998H60.6667V33.8332H58.3334V36.1665H60.6667V38.4998H58.3334V40.8331H60.6667V43.1665H58.3334V45.4998H60.6667V47.8331H58.3334V45.4998H56V47.8331H53.6667V45.4998H51.3334V47.8331H49V45.4998H46.6667V47.8331H44.3334V45.4998H42.0001V47.8331H39.6667V45.4998H37.3334V47.8331H35.0001V45.4998H32.6667V47.8331H29.6497L60.6667 16.8162Z" fill="url(#paint2_linear_60_487)"/>
<path d="M43.7319 43.1665H54.8327C55.477 43.1665 55.9993 42.6441 55.9993 41.9998V30.899C55.9992 30.2547 55.4768 29.7325 54.8324 29.7327C54.5231 29.7327 54.2266 29.8556 54.0078 30.0742L42.907 41.175C42.4514 41.6307 42.4516 42.3694 42.9073 42.825C43.1261 43.0436 43.4225 43.1665 43.7319 43.1665ZM53.666 33.7165V40.8332H46.5494L53.666 33.7165Z" fill="url(#paint3_linear_60_487)"/>
<path d="M53.6663 7H30.333V9.33333H53.6663V7Z" fill="url(#paint4_linear_60_487)"/>
<path d="M57.1663 11.6667H26.833V14.0001H57.1663V11.6667Z" fill="url(#paint5_linear_60_487)"/>
<path d="M26.833 36.1665H19.833V38.4998H26.833V36.1665Z" fill="url(#paint6_linear_60_487)"/>
<path d="M24.4997 40.8333H19.833V43.1666H24.4997V40.8333Z" fill="url(#paint7_linear_60_487)"/>
</g>
<defs>
<linearGradient id="paint0_linear_60_487" x1="20.0474" y1="4.66627" x2="35.5515" y2="60.4677" gradientUnits="userSpaceOnUse">
<stop stop-color="#FF9700"/>
<stop offset="0.9977" stop-color="#FF6800"/>
<stop offset="1" stop-color="#FF6802"/>
</linearGradient>
<linearGradient id="paint1_linear_60_487" x1="10.4366" y1="21.7777" x2="11.1171" y2="31.7495" gradientUnits="userSpaceOnUse">
<stop stop-color="#FF9700"/>
<stop offset="0.9977" stop-color="#FF6800"/>
<stop offset="1" stop-color="#FF6802"/>
</linearGradient>
<linearGradient id="paint2_linear_60_487" x1="34.4557" y1="15.3222" x2="42.2452" y2="45.3601" gradientUnits="userSpaceOnUse">
<stop stop-color="#FF9700"/>
<stop offset="0.9977" stop-color="#FF6800"/>
<stop offset="1" stop-color="#FF6802"/>
</linearGradient>
<linearGradient id="paint3_linear_60_487" x1="45.728" y1="30.6282" x2="48.5309" y2="41.437" gradientUnits="userSpaceOnUse">
<stop stop-color="#FF9700"/>
<stop offset="0.9977" stop-color="#FF6800"/>
<stop offset="1" stop-color="#FF6802"/>
</linearGradient>
<linearGradient id="paint4_linear_60_487" x1="35.826" y1="7.15554" x2="35.8779" y2="9.15783" gradientUnits="userSpaceOnUse">
<stop stop-color="#FF9700"/>
<stop offset="0.9977" stop-color="#FF6800"/>
<stop offset="1" stop-color="#FF6802"/>
</linearGradient>
<linearGradient id="paint5_linear_60_487" x1="33.9739" y1="11.8223" x2="34.0138" y2="13.8251" gradientUnits="userSpaceOnUse">
<stop stop-color="#FF9700"/>
<stop offset="0.9977" stop-color="#FF6800"/>
<stop offset="1" stop-color="#FF6802"/>
</linearGradient>
<linearGradient id="paint6_linear_60_487" x1="21.4809" y1="36.322" x2="21.6528" y2="38.3108" gradientUnits="userSpaceOnUse">
<stop stop-color="#FF9700"/>
<stop offset="0.9977" stop-color="#FF6800"/>
<stop offset="1" stop-color="#FF6802"/>
</linearGradient>
<linearGradient id="paint7_linear_60_487" x1="20.9316" y1="40.9888" x2="21.1871" y2="42.9593" gradientUnits="userSpaceOnUse">
<stop stop-color="#FF9700"/>
<stop offset="0.9977" stop-color="#FF6800"/>
<stop offset="1" stop-color="#FF6802"/>
</linearGradient>
<clipPath id="clip0_60_487">
<rect width="70" height="70" fill="white"/>
</clipPath>
</defs>
</svg>
