<svg width="70" height="70" viewBox="0 0 70 70" fill="none" xmlns="http://www.w3.org/2000/svg">
<g clip-path="url(#clip0_60_477)">
<path d="M9.58272 57.1178C9.01643 57.1178 8.55732 57.5769 8.55732 58.1432C8.55732 58.7095 9.01643 59.1686 9.58272 59.1686C12.7643 59.1686 15.3529 56.2495 15.3529 52.6614C15.3529 49.0734 12.7644 46.1543 9.58272 46.1543C6.401 46.1543 3.8125 49.0734 3.8125 52.6614C3.8125 53.2277 4.2716 53.6868 4.83789 53.6868C5.40418 53.6868 5.86328 53.2277 5.86328 52.6614C5.86328 50.2042 7.5318 48.2051 9.58272 48.2051C11.6336 48.2051 13.3021 50.2042 13.3021 52.6614C13.3021 55.1187 11.6336 57.1178 9.58272 57.1178Z" fill="url(#paint0_linear_60_477)"/>
<path d="M20.4787 41.5336C21.045 41.5336 21.5041 41.0745 21.5041 40.5082C21.5041 39.9419 21.045 39.4828 20.4787 39.4828C18.412 39.4828 16.7305 37.4688 16.7305 34.9931C16.7305 32.5174 18.4118 30.5034 20.4787 30.5034C22.5457 30.5034 24.227 32.5174 24.227 34.9931C24.227 35.5594 24.6861 36.0185 25.2524 36.0185C25.8187 36.0185 26.2778 35.5594 26.2778 34.9931C26.2778 31.3866 23.6765 28.4526 20.4787 28.4526C17.281 28.4526 14.6797 31.3866 14.6797 34.9931C14.6797 38.5996 17.2812 41.5336 20.4787 41.5336Z" fill="url(#paint1_linear_60_477)"/>
<path d="M60.4174 41.7486H56.8859C58.2066 39.8438 58.9367 37.4819 58.9367 34.9921C58.9367 33.3695 58.6317 31.8079 58.03 30.3505C57.8137 29.827 57.2141 29.578 56.691 29.7939C56.1675 30.0101 55.9184 30.6096 56.1344 31.1329C56.6331 32.341 56.8861 33.6394 56.8861 34.9921C56.8861 35.9405 56.7602 36.8646 56.5194 37.738H40.2012C39.6349 37.738 39.1758 38.1971 39.1758 38.7633C39.1758 39.3296 39.6349 39.7887 40.2012 39.7887H55.6907C55.2928 40.5135 54.8014 41.1742 54.2258 41.7487H31.5424C31.5375 41.7487 31.5325 41.7489 31.5276 41.7489C29.8186 41.7517 28.213 42.2666 26.8231 43.1658C28.8087 41.1649 30.0625 38.2427 30.0625 34.9932C30.0625 34.503 30.034 34.0203 29.9787 33.547H40.2012C40.7675 33.547 41.2266 33.0879 41.2266 32.5216C41.2266 31.9553 40.7675 31.4962 40.2012 31.4962H29.5579C28.9096 29.3196 27.6735 27.4493 26.066 26.1315H49.3541C51.015 26.1315 52.5906 26.7571 53.9109 27.9405C54.3315 28.3175 54.9799 28.2843 55.3589 27.8615C55.737 27.4399 55.7015 26.7916 55.2799 26.4135C53.5773 24.8873 51.5283 24.0807 49.3541 24.0807H29.9749L28.9198 21.1765C31.1235 19.2258 32.6061 16.5089 31.6046 13.7527C29.6324 8.32524 24.306 6.73069 23.2582 6.46614C22.7406 6.3353 22.2038 6.53067 21.8911 6.96284C21.2574 7.83838 18.1962 12.4811 20.1682 17.9087C21.168 20.6604 24.0431 21.7953 26.9922 21.8767L27.793 24.081H20.5159C20.5037 24.081 20.4914 24.0808 20.4792 24.0808C15.1951 24.0808 10.8959 28.9762 10.8959 34.9935C10.8959 37.5422 11.6673 39.8896 12.9581 41.749H9.58398C9.57893 41.749 9.57387 41.7491 9.56881 41.7491C8.09033 41.7516 6.67283 42.1266 5.35541 42.8639C4.86131 43.1405 4.68494 43.7655 4.96152 44.2596C5.23824 44.7538 5.86305 44.9302 6.35715 44.6535C7.369 44.087 8.45441 43.7998 9.58316 43.7998C13.7365 43.7998 17.1157 47.7752 17.1157 52.6616C17.1157 57.5481 13.7365 61.5235 9.58316 61.5235C5.42979 61.5235 2.05078 57.5475 2.05078 52.6612C2.05078 50.7139 2.57865 48.8659 3.57738 47.3166C3.88418 46.8407 3.74705 46.206 3.27113 45.8992C2.79521 45.5926 2.16057 45.7296 1.85377 46.2055C0.640937 48.0866 0 50.3189 0 52.6612C0 58.6675 4.28354 63.5561 9.55486 63.5737C9.56457 63.574 9.57428 63.5741 9.58398 63.5741H52.4821C53.0484 63.5741 53.5075 63.115 53.5075 62.5487C53.5075 61.9824 53.0484 61.5233 52.4821 61.5233H37.1283C39.5474 59.5405 41.1254 56.3068 41.1254 52.6612C41.1254 51.8278 41.0428 51.0159 40.8868 50.2357H59.4884C60.0547 50.2357 60.5138 49.7766 60.5138 49.2103C60.5138 48.644 60.0547 48.1849 59.4884 48.1849H40.2817C39.5844 46.4267 38.4896 44.915 37.1286 43.7992H60.4174C64.5704 43.7992 67.9492 47.7747 67.9492 52.6613C67.9492 53.7629 67.7775 54.8182 67.4639 55.7921H54.873C54.3067 55.7921 53.8476 56.2512 53.8476 56.8175C53.8476 57.3837 54.3067 57.8428 54.873 57.8428H66.5242C65.155 60.071 62.9277 61.5233 60.4174 61.5233H56.8825C56.3162 61.5233 55.8571 61.9824 55.8571 62.5487C55.8571 63.115 56.3162 63.5741 56.8825 63.5741H60.4174C65.7011 63.5741 70 58.6786 70 52.6613C70 46.6439 65.7013 41.7486 60.4174 41.7486ZM22.0957 17.208C20.6865 13.3298 22.4353 9.90256 23.2597 8.5995C24.7275 9.06926 28.2678 10.5743 29.677 14.4528C30.3477 16.2987 29.1287 18.0436 28.1539 19.0683L25.5047 11.7759C25.3114 11.2436 24.723 10.969 24.1909 11.1623C23.6586 11.3557 23.384 11.9439 23.5773 12.4762L26.2263 19.7682C24.821 19.6082 22.766 19.0527 22.0957 17.208ZM20.471 26.1312C20.4738 26.1312 20.4765 26.1313 20.4791 26.1313H20.5146C24.6519 26.1539 28.0118 30.1205 28.0118 34.993C28.0118 39.8794 24.6326 43.8549 20.4792 43.8549C16.3259 43.8549 12.9467 39.8795 12.9467 34.993C12.9467 30.1099 16.3213 26.1365 20.471 26.1312ZM19.1666 52.6612C19.1666 49.5429 18.012 46.726 16.1641 44.7355C17.4537 45.4791 18.9097 45.9002 20.4503 45.9055C20.46 45.9058 20.4697 45.9059 20.4795 45.9059H24.0208C22.73 47.7653 21.9588 50.1126 21.9588 52.6613C21.9588 56.3069 23.5368 59.5406 25.9559 61.5235H15.1696C17.5886 59.5405 19.1666 56.3068 19.1666 52.6612ZM39.0746 52.6612C39.0746 57.5475 35.6955 61.523 31.5421 61.523C27.3887 61.523 24.0096 57.5477 24.0096 52.6612C24.0096 47.7747 27.3887 43.7994 31.5421 43.7994C35.6955 43.7994 39.0746 47.7749 39.0746 52.6612Z" fill="url(#paint2_linear_60_477)"/>
<path d="M31.5422 45.876C30.9759 45.876 30.5168 46.3351 30.5168 46.9014C30.5168 47.4677 30.9759 47.9268 31.5422 47.9268C33.7259 47.9268 35.5026 50.0507 35.5026 52.6613C35.5026 55.272 33.7259 57.3959 31.5422 57.3959C29.3586 57.3959 27.582 55.272 27.582 52.6613C27.582 52.095 27.1229 51.6359 26.5566 51.6359C25.9904 51.6359 25.5312 52.095 25.5312 52.6613C25.5312 56.4028 28.2278 59.4467 31.5422 59.4467C34.8567 59.4467 37.5533 56.4028 37.5533 52.6613C37.5533 48.9199 34.8567 45.876 31.5422 45.876Z" fill="url(#paint3_linear_60_477)"/>
<path d="M46.3779 31.4961C45.8116 31.4961 45.3525 31.9552 45.3525 32.5215C45.3525 33.0878 45.8116 33.5469 46.3779 33.5469H50.259C50.8253 33.5469 51.2844 33.0878 51.2844 32.5215C51.2844 31.9552 50.8253 31.4961 50.259 31.4961H46.3779Z" fill="url(#paint4_linear_60_477)"/>
<path d="M44.5557 55.7922C43.9894 55.7922 43.5303 56.2513 43.5303 56.8176C43.5303 57.3839 43.9894 57.843 44.5557 57.843H47.7587C48.325 57.843 48.7841 57.3839 48.7841 56.8176C48.7841 56.2513 48.325 55.7922 47.7587 55.7922H44.5557Z" fill="url(#paint5_linear_60_477)"/>
</g>
<defs>
<linearGradient id="paint0_linear_60_477" x1="6.52928" y1="47.0218" x2="9.53995" y2="57.3168" gradientUnits="userSpaceOnUse">
<stop stop-color="#FF9700"/>
<stop offset="0.9977" stop-color="#FF6800"/>
<stop offset="1" stop-color="#FF6802"/>
</linearGradient>
<linearGradient id="paint1_linear_60_477" x1="17.41" y1="29.3246" x2="20.4365" y2="39.6722" gradientUnits="userSpaceOnUse">
<stop stop-color="#FF9700"/>
<stop offset="0.9977" stop-color="#FF6800"/>
<stop offset="1" stop-color="#FF6802"/>
</linearGradient>
<linearGradient id="paint2_linear_60_477" x1="16.479" y1="10.2356" x2="26.4227" y2="57.2037" gradientUnits="userSpaceOnUse">
<stop stop-color="#FF9700"/>
<stop offset="0.9977" stop-color="#FF6800"/>
<stop offset="1" stop-color="#FF6802"/>
</linearGradient>
<linearGradient id="paint3_linear_60_477" x1="28.3614" y1="46.7806" x2="31.5034" y2="57.5141" gradientUnits="userSpaceOnUse">
<stop stop-color="#FF9700"/>
<stop offset="0.9977" stop-color="#FF6800"/>
<stop offset="1" stop-color="#FF6802"/>
</linearGradient>
<linearGradient id="paint4_linear_60_477" x1="46.749" y1="31.6328" x2="46.9056" y2="33.3798" gradientUnits="userSpaceOnUse">
<stop stop-color="#FF9700"/>
<stop offset="0.9977" stop-color="#FF6800"/>
<stop offset="1" stop-color="#FF6802"/>
</linearGradient>
<linearGradient id="paint5_linear_60_477" x1="44.7671" y1="55.9289" x2="44.9435" y2="57.6721" gradientUnits="userSpaceOnUse">
<stop stop-color="#FF9700"/>
<stop offset="0.9977" stop-color="#FF6800"/>
<stop offset="1" stop-color="#FF6802"/>
</linearGradient>
<clipPath id="clip0_60_477">
<rect width="70" height="70" fill="white"/>
</clipPath>
</defs>
</svg>
